<svg width="104" height="104" viewBox="0 0 104 104" fill="none" xmlns="http://www.w3.org/2000/svg">
<g filter="url(#filter0_d_27_222)">
<rect x="4" width="96" height="96" rx="48" fill="url(#paint0_linear_27_222)"/>
<g filter="url(#filter1_d_27_222)">
<path d="M39.2731 74.4526C37.6393 76.4867 34.3671 75.6099 33.9692 73.0314L32.7366 65.0432C32.4062 62.9019 34.3852 61.1272 36.478 61.6879L42.7722 63.3745C44.865 63.9352 45.6915 66.4617 44.3347 68.1509L39.2731 74.4526Z" fill="white"/>
<path d="M21.561 41.3415C21.561 33.0572 28.2767 26.3415 36.561 26.3415H68.0244C76.3087 26.3415 83.0244 33.0572 83.0244 41.3415V52.3171C83.0244 60.6013 76.3087 67.3171 68.0244 67.3171H36.561C28.2767 67.3171 21.561 60.6013 21.561 52.3171V41.3415Z" fill="white"/>
</g>
</g>
<defs>
<filter id="filter0_d_27_222" x="0" y="0" width="104" height="104" filterUnits="userSpaceOnUse" color-interpolation-filters="sRGB">
<feFlood flood-opacity="0" result="BackgroundImageFix"/>
<feColorMatrix in="SourceAlpha" type="matrix" values="0 0 0 0 0 0 0 0 0 0 0 0 0 0 0 0 0 0 127 0" result="hardAlpha"/>
<feOffset dy="4"/>
<feGaussianBlur stdDeviation="2"/>
<feComposite in2="hardAlpha" operator="out"/>
<feColorMatrix type="matrix" values="0 0 0 0 0 0 0 0 0 0 0 0 0 0 0 0 0 0 0.25 0"/>
<feBlend mode="normal" in2="BackgroundImageFix" result="effect1_dropShadow_27_222"/>
<feBlend mode="normal" in="SourceGraphic" in2="effect1_dropShadow_27_222" result="shape"/>
</filter>
<filter id="filter1_d_27_222" x="21.561" y="26.3415" width="69.4634" height="63.7696" filterUnits="userSpaceOnUse" color-interpolation-filters="sRGB">
<feFlood flood-opacity="0" result="BackgroundImageFix"/>
<feColorMatrix in="SourceAlpha" type="matrix" values="0 0 0 0 0 0 0 0 0 0 0 0 0 0 0 0 0 0 127 0" result="hardAlpha"/>
<feOffset dx="4" dy="4"/>
<feGaussianBlur stdDeviation="2"/>
<feComposite in2="hardAlpha" operator="out"/>
<feColorMatrix type="matrix" values="0 0 0 0 0 0 0 0 0 0 0 0 0 0 0 0 0 0 0.25 0"/>
<feBlend mode="normal" in2="BackgroundImageFix" result="effect1_dropShadow_27_222"/>
<feBlend mode="normal" in="SourceGraphic" in2="effect1_dropShadow_27_222" result="shape"/>
</filter>
<linearGradient id="paint0_linear_27_222" x1="5.46341" y1="84.5854" x2="105.854" y2="17.2683" gradientUnits="userSpaceOnUse">
<stop offset="0.14" stop-color="#8760D2"/>
<stop offset="0.46" stop-color="#ABA3EC"/>
<stop offset="0.78" stop-color="#E9B9DF"/>
</linearGradient>
</defs>
</svg>
