<svg width="588" height="392" viewBox="0 0 588 392" fill="none" xmlns="http://www.w3.org/2000/svg">
<g filter="url(#filter0_d_37_206)">
<rect x="9" y="9" width="562" height="366" rx="14" fill="white"/>
</g>
<path d="M47.8223 39.144C47.8223 40.36 47.5023 41.4053 46.8623 42.28C46.2436 43.1547 45.4009 43.8267 44.3343 44.296C43.2676 44.7653 42.0943 45 40.8143 45H29.9663V22.28H41.6783C42.7449 22.28 43.6623 22.568 44.4303 23.144C45.2196 23.6987 45.8169 24.424 46.2222 25.32C46.6489 26.1947 46.8623 27.112 46.8623 28.072C46.8623 29.1813 46.5743 30.2267 45.9983 31.208C45.4436 32.168 44.6436 32.8827 43.5983 33.352C44.8996 33.736 45.9236 34.44 46.6703 35.464C47.4383 36.4667 47.8223 37.6933 47.8223 39.144ZM44.1423 38.472C44.1423 37.832 44.0036 37.256 43.7263 36.744C43.4703 36.2107 43.1076 35.784 42.6383 35.464C42.1903 35.1227 41.6569 34.952 41.0383 34.952H33.5503V41.896H40.8143C41.4543 41.896 42.0196 41.7467 42.5103 41.448C43.0223 41.128 43.4169 40.712 43.6943 40.2C43.9929 39.6667 44.1423 39.0907 44.1423 38.472ZM33.5503 25.384V32.072H40.1423C40.7396 32.072 41.2729 31.9333 41.7423 31.656C42.2116 31.3573 42.5849 30.9627 42.8623 30.472C43.1396 29.96 43.2783 29.384 43.2783 28.744C43.2783 28.0827 43.1503 27.5067 42.8943 27.016C42.6383 26.504 42.2863 26.1093 41.8383 25.832C41.4116 25.5333 40.9103 25.384 40.3343 25.384H33.5503ZM49.896 40.104C49.896 39.0373 50.1947 38.1093 50.792 37.32C51.4107 36.5093 52.2533 35.8907 53.32 35.464C54.3867 35.016 55.624 34.792 57.032 34.792C57.7787 34.792 58.536 34.8453 59.304 34.952C60.0933 35.0587 60.7867 35.2293 61.384 35.464V34.408C61.384 33.2347 61.032 32.3173 60.328 31.656C59.624 30.9947 58.6107 30.664 57.288 30.664C56.3493 30.664 55.464 30.8347 54.632 31.176C53.8 31.496 52.9147 31.9547 51.976 32.552L50.792 30.184C51.9013 29.4373 53.0107 28.8827 54.12 28.52C55.2507 28.1573 56.4347 27.976 57.672 27.976C59.912 27.976 61.672 28.5733 62.952 29.768C64.2533 30.9413 64.904 32.616 64.904 34.792V41.032C64.904 41.4373 64.968 41.7253 65.096 41.896C65.2453 42.0667 65.4907 42.1627 65.832 42.184V45C65.512 45.064 65.224 45.1067 64.968 45.128C64.712 45.1493 64.4987 45.16 64.328 45.16C63.5813 45.16 63.016 44.9787 62.632 44.616C62.248 44.2533 62.024 43.8267 61.96 43.336L61.864 42.376C61.1387 43.3147 60.2107 44.04 59.08 44.552C57.9493 45.064 56.808 45.32 55.656 45.32C54.5467 45.32 53.5547 45.096 52.68 44.648C51.8053 44.1787 51.1227 43.5493 50.632 42.76C50.1413 41.9707 49.896 41.0853 49.896 40.104ZM60.552 41.128C60.808 40.8507 61.0107 40.5733 61.16 40.296C61.3093 40.0187 61.384 39.7733 61.384 39.56V37.64C60.7867 37.4053 60.1573 37.2347 59.496 37.128C58.8347 37 58.184 36.936 57.544 36.936C56.264 36.936 55.2187 37.192 54.408 37.704C53.6187 38.216 53.224 38.92 53.224 39.816C53.224 40.3067 53.352 40.776 53.608 41.224C53.8853 41.672 54.2693 42.0347 54.76 42.312C55.272 42.5893 55.9013 42.728 56.648 42.728C57.416 42.728 58.152 42.5787 58.856 42.28C59.56 41.9813 60.1253 41.5973 60.552 41.128ZM69.2065 21.64H72.7265V40.168C72.7265 41.0213 72.8545 41.5653 73.1105 41.8C73.3665 42.0347 73.6865 42.152 74.0705 42.152C74.4972 42.152 74.8918 42.1093 75.2545 42.024C75.6385 41.9387 75.9692 41.832 76.2465 41.704L76.7585 44.488C76.2465 44.7013 75.6385 44.8827 74.9345 45.032C74.2305 45.1813 73.6012 45.256 73.0465 45.256C71.8518 45.256 70.9132 44.9253 70.2305 44.264C69.5478 43.5813 69.2065 42.6427 69.2065 41.448V21.64ZM77.5835 40.104C77.5835 39.0373 77.8822 38.1093 78.4795 37.32C79.0982 36.5093 79.9408 35.8907 81.0075 35.464C82.0742 35.016 83.3115 34.792 84.7195 34.792C85.4662 34.792 86.2235 34.8453 86.9915 34.952C87.7808 35.0587 88.4742 35.2293 89.0715 35.464V34.408C89.0715 33.2347 88.7195 32.3173 88.0155 31.656C87.3115 30.9947 86.2982 30.664 84.9755 30.664C84.0368 30.664 83.1515 30.8347 82.3195 31.176C81.4875 31.496 80.6022 31.9547 79.6635 32.552L78.4795 30.184C79.5888 29.4373 80.6982 28.8827 81.8075 28.52C82.9382 28.1573 84.1222 27.976 85.3595 27.976C87.5995 27.976 89.3595 28.5733 90.6395 29.768C91.9408 30.9413 92.5915 32.616 92.5915 34.792V41.032C92.5915 41.4373 92.6555 41.7253 92.7835 41.896C92.9328 42.0667 93.1782 42.1627 93.5195 42.184V45C93.1995 45.064 92.9115 45.1067 92.6555 45.128C92.3995 45.1493 92.1862 45.16 92.0155 45.16C91.2688 45.16 90.7035 44.9787 90.3195 44.616C89.9355 44.2533 89.7115 43.8267 89.6475 43.336L89.5515 42.376C88.8262 43.3147 87.8982 44.04 86.7675 44.552C85.6368 45.064 84.4955 45.32 83.3435 45.32C82.2342 45.32 81.2422 45.096 80.3675 44.648C79.4928 44.1787 78.8102 43.5493 78.3195 42.76C77.8288 41.9707 77.5835 41.0853 77.5835 40.104ZM88.2395 41.128C88.4955 40.8507 88.6982 40.5733 88.8475 40.296C88.9968 40.0187 89.0715 39.7733 89.0715 39.56V37.64C88.4742 37.4053 87.8448 37.2347 87.1835 37.128C86.5222 37 85.8715 36.936 85.2315 36.936C83.9515 36.936 82.9062 37.192 82.0955 37.704C81.3062 38.216 80.9115 38.92 80.9115 39.816C80.9115 40.3067 81.0395 40.776 81.2955 41.224C81.5728 41.672 81.9568 42.0347 82.4475 42.312C82.9595 42.5893 83.5888 42.728 84.3355 42.728C85.1035 42.728 85.8395 42.5787 86.5435 42.28C87.2475 41.9813 87.8128 41.5973 88.2395 41.128ZM111.87 45H108.35V35.624C108.35 34.0667 108.094 32.9253 107.582 32.2C107.091 31.4747 106.355 31.112 105.374 31.112C104.691 31.112 104.009 31.2827 103.326 31.624C102.665 31.9653 102.067 32.4347 101.534 33.032C101.001 33.608 100.617 34.28 100.382 35.048V45H96.862V28.264H100.062V31.624C100.489 30.8773 101.043 30.2373 101.726 29.704C102.43 29.1493 103.219 28.7227 104.094 28.424C104.969 28.1253 105.897 27.976 106.878 27.976C107.881 27.976 108.702 28.1573 109.342 28.52C110.003 28.8827 110.515 29.384 110.878 30.024C111.262 30.6427 111.518 31.368 111.646 32.2C111.795 33.0107 111.87 33.8747 111.87 34.792V45ZM123.54 45.32C122.238 45.32 121.054 45.096 119.988 44.648C118.942 44.1787 118.036 43.5387 117.268 42.728C116.5 41.9173 115.902 40.9893 115.476 39.944C115.07 38.8987 114.868 37.7893 114.868 36.616C114.868 35.0373 115.22 33.5973 115.924 32.296C116.649 30.9947 117.652 29.9493 118.932 29.16C120.233 28.3707 121.769 27.976 123.54 27.976C125.246 27.976 126.729 28.36 127.988 29.128C129.268 29.8747 130.206 30.8773 130.804 32.136L127.38 33.224C126.996 32.52 126.452 31.976 125.748 31.592C125.065 31.1867 124.308 30.984 123.476 30.984C122.537 30.984 121.684 31.2293 120.916 31.72C120.169 32.1893 119.572 32.8507 119.124 33.704C118.697 34.536 118.484 35.5067 118.484 36.616C118.484 37.6827 118.708 38.6533 119.156 39.528C119.604 40.3813 120.201 41.064 120.948 41.576C121.716 42.0667 122.569 42.312 123.508 42.312C124.084 42.312 124.638 42.216 125.172 42.024C125.726 41.8107 126.206 41.5333 126.612 41.192C127.017 40.8293 127.305 40.4347 127.476 40.008L130.932 41.032C130.569 41.864 130.025 42.6 129.3 43.24C128.596 43.88 127.753 44.392 126.772 44.776C125.812 45.1387 124.734 45.32 123.54 45.32ZM141.259 45.32C139.957 45.32 138.773 45.096 137.707 44.648C136.661 44.1787 135.755 43.5493 134.987 42.76C134.219 41.9493 133.621 41.032 133.195 40.008C132.789 38.9627 132.587 37.8533 132.587 36.68C132.587 35.1013 132.949 33.6613 133.674 32.36C134.4 31.0373 135.413 29.9813 136.715 29.192C138.016 28.3813 139.541 27.976 141.291 27.976C143.04 27.976 144.544 28.3813 145.803 29.192C147.083 29.9813 148.075 31.0267 148.779 32.328C149.483 33.6293 149.835 35.0267 149.835 36.52C149.835 36.776 149.824 37.0213 149.803 37.256C149.781 37.4693 149.76 37.6507 149.739 37.8H136.331C136.395 38.7813 136.661 39.6453 137.131 40.392C137.621 41.1173 138.24 41.6933 138.987 42.12C139.733 42.5253 140.533 42.728 141.387 42.728C142.325 42.728 143.211 42.4933 144.043 42.024C144.896 41.5547 145.472 40.936 145.771 40.168L148.779 41.032C148.416 41.8427 147.861 42.5787 147.115 43.24C146.389 43.88 145.525 44.392 144.523 44.776C143.52 45.1387 142.432 45.32 141.259 45.32ZM136.235 35.464H146.347C146.283 34.504 146.005 33.6613 145.515 32.936C145.045 32.1893 144.437 31.6133 143.691 31.208C142.965 30.7813 142.155 30.568 141.259 30.568C140.384 30.568 139.573 30.7813 138.827 31.208C138.101 31.6133 137.504 32.1893 137.035 32.936C136.565 33.6613 136.299 34.504 136.235 35.464Z" fill="#8760D2"/>
<path d="M61.5 59V339" stroke="#F0F0F0"/>
<path d="M178.5 59V339" stroke="#F0F0F0"/>
<path d="M295.5 59V339" stroke="#F0F0F0"/>
<path d="M412.5 59V339" stroke="#F0F0F0"/>
<path d="M530.5 59V339" stroke="#F0F0F0"/>
<path d="M62 339.5H530" stroke="#F0F0F0"/>
<path d="M62 283.5H530" stroke="#F0F0F0"/>
<path d="M62 227.5H530" stroke="#F0F0F0"/>
<path d="M62 171.5H530" stroke="#F0F0F0"/>
<path d="M62 115.5H530" stroke="#F0F0F0"/>
<path d="M62 58.5H530" stroke="#F0F0F0"/>
<path d="M62 339.5H530" stroke="#F0F0F0"/>
<path d="M61.5 59V339" stroke="#F0F0F0"/>
<path d="M51.6388 356.11C51.7788 356.21 51.9622 356.297 52.1888 356.37C52.4222 356.443 52.6888 356.48 52.9888 356.48C53.3355 356.48 53.6155 356.423 53.8288 356.31C54.0422 356.19 54.2055 356.013 54.3188 355.78C54.4322 355.54 54.5088 355.243 54.5488 354.89C54.5888 354.537 54.6088 354.123 54.6088 353.65V349.9H55.3088V353.51C55.3088 354.043 55.2822 354.53 55.2288 354.97C55.1755 355.41 55.0722 355.79 54.9188 356.11C54.7655 356.43 54.5355 356.677 54.2288 356.85C53.9222 357.023 53.5155 357.11 53.0088 357.11C52.6822 357.11 52.3922 357.073 52.1388 357C51.8855 356.927 51.6522 356.817 51.4388 356.67L51.6388 356.11ZM56.7645 354.85V351.79H57.4445V354.73C57.4445 355.323 57.5445 355.767 57.7445 356.06C57.9511 356.353 58.2545 356.5 58.6545 356.5C58.9211 356.5 59.1778 356.443 59.4245 356.33C59.6778 356.21 59.9011 356.043 60.0945 355.83C60.2878 355.61 60.4345 355.357 60.5345 355.07V351.79H61.2145V356.18C61.2145 356.273 61.2345 356.343 61.2745 356.39C61.3145 356.43 61.3745 356.453 61.4545 356.46V357C61.3745 357.007 61.3111 357.01 61.2645 357.01C61.2178 357.017 61.1745 357.02 61.1345 357.02C61.0011 357.007 60.8845 356.953 60.7845 356.86C60.6911 356.767 60.6411 356.653 60.6345 356.52L60.6145 355.82C60.3878 356.22 60.0778 356.533 59.6845 356.76C59.2978 356.987 58.8778 357.1 58.4245 357.1C57.8778 357.1 57.4645 356.91 57.1845 356.53C56.9045 356.15 56.7645 355.59 56.7645 354.85ZM67.132 357H66.452V354.09C66.452 353.477 66.362 353.03 66.182 352.75C66.002 352.463 65.7186 352.32 65.332 352.32C65.0653 352.32 64.802 352.387 64.542 352.52C64.282 352.647 64.052 352.823 63.852 353.05C63.6586 353.27 63.5186 353.523 63.432 353.81V357H62.752V351.79H63.372V352.97C63.512 352.717 63.6953 352.497 63.922 352.31C64.1486 352.117 64.4053 351.967 64.692 351.86C64.9786 351.753 65.2753 351.7 65.582 351.7C65.8686 351.7 66.112 351.753 66.312 351.86C66.512 351.967 66.672 352.12 66.792 352.32C66.912 352.513 66.9986 352.75 67.052 353.03C67.1053 353.303 67.132 353.61 67.132 353.95V357ZM70.832 357.1C70.4587 357.1 70.112 357.03 69.792 356.89C69.472 356.743 69.1954 356.547 68.962 356.3C68.7287 356.047 68.5454 355.757 68.412 355.43C68.2854 355.103 68.222 354.753 68.222 354.38C68.222 353.893 68.332 353.447 68.552 353.04C68.7787 352.633 69.0887 352.31 69.482 352.07C69.8754 351.823 70.322 351.7 70.822 351.7C71.3354 351.7 71.782 351.823 72.162 352.07C72.5487 352.317 72.852 352.643 73.072 353.05C73.292 353.45 73.402 353.89 73.402 354.37C73.402 354.423 73.402 354.477 73.402 354.53C73.402 354.577 73.3987 354.613 73.392 354.64H68.932C68.9654 355.013 69.0687 355.347 69.242 355.64C69.422 355.927 69.652 356.157 69.932 356.33C70.2187 356.497 70.5287 356.58 70.862 356.58C71.202 356.58 71.522 356.493 71.822 356.32C72.1287 356.147 72.342 355.92 72.462 355.64L73.052 355.8C72.9454 356.047 72.782 356.27 72.562 356.47C72.342 356.67 72.082 356.827 71.782 356.94C71.4887 357.047 71.172 357.1 70.832 357.1ZM68.912 354.15H72.762C72.7354 353.77 72.632 353.437 72.452 353.15C72.2787 352.863 72.0487 352.64 71.762 352.48C71.482 352.313 71.172 352.23 70.832 352.23C70.492 352.23 70.182 352.313 69.902 352.48C69.622 352.64 69.392 352.867 69.212 353.16C69.0387 353.447 68.9387 353.777 68.912 354.15Z" fill="#A3A3A3"/>
<path d="M170.499 356.11C170.639 356.21 170.823 356.297 171.049 356.37C171.283 356.443 171.549 356.48 171.849 356.48C172.196 356.48 172.476 356.423 172.689 356.31C172.903 356.19 173.066 356.013 173.179 355.78C173.293 355.54 173.369 355.243 173.409 354.89C173.449 354.537 173.469 354.123 173.469 353.65V349.9H174.169V353.51C174.169 354.043 174.143 354.53 174.089 354.97C174.036 355.41 173.933 355.79 173.779 356.11C173.626 356.43 173.396 356.677 173.089 356.85C172.783 357.023 172.376 357.11 171.869 357.11C171.543 357.11 171.253 357.073 170.999 357C170.746 356.927 170.513 356.817 170.299 356.67L170.499 356.11ZM175.625 354.85V351.79H176.305V354.73C176.305 355.323 176.405 355.767 176.605 356.06C176.811 356.353 177.115 356.5 177.515 356.5C177.781 356.5 178.038 356.443 178.285 356.33C178.538 356.21 178.761 356.043 178.955 355.83C179.148 355.61 179.295 355.357 179.395 355.07V351.79H180.075V356.18C180.075 356.273 180.095 356.343 180.135 356.39C180.175 356.43 180.235 356.453 180.315 356.46V357C180.235 357.007 180.171 357.01 180.125 357.01C180.078 357.017 180.035 357.02 179.995 357.02C179.861 357.007 179.745 356.953 179.645 356.86C179.551 356.767 179.501 356.653 179.495 356.52L179.475 355.82C179.248 356.22 178.938 356.533 178.545 356.76C178.158 356.987 177.738 357.1 177.285 357.1C176.738 357.1 176.325 356.91 176.045 356.53C175.765 356.15 175.625 355.59 175.625 354.85ZM181.642 349.7H182.322V355.82C182.322 356.08 182.369 356.25 182.462 356.33C182.556 356.41 182.669 356.45 182.802 356.45C182.922 356.45 183.042 356.437 183.162 356.41C183.282 356.383 183.386 356.357 183.472 356.33L183.592 356.88C183.466 356.933 183.309 356.977 183.122 357.01C182.942 357.043 182.786 357.06 182.652 357.06C182.346 357.06 182.099 356.97 181.912 356.79C181.732 356.61 181.642 356.363 181.642 356.05V349.7ZM184.471 358.6C184.564 358.607 184.654 358.61 184.741 358.61C184.828 358.617 184.891 358.613 184.931 358.6C185.011 358.587 185.088 358.54 185.161 358.46C185.234 358.38 185.321 358.227 185.421 358C185.521 357.773 185.661 357.44 185.841 357L183.571 351.79H184.291L186.201 356.3L187.961 351.79H188.641L185.941 358.51C185.894 358.637 185.824 358.753 185.731 358.86C185.638 358.973 185.521 359.06 185.381 359.12C185.248 359.187 185.081 359.223 184.881 359.23C184.821 359.237 184.758 359.237 184.691 359.23C184.631 359.23 184.558 359.223 184.471 359.21V358.6Z" fill="#A3A3A3"/>
<path d="M283.145 349.9H283.735L286.685 357H285.945L285.025 354.78H281.835L280.925 357H280.175L283.145 349.9ZM284.865 354.23L283.435 350.72L281.985 354.23H284.865ZM287.405 354.85V351.79H288.085V354.73C288.085 355.323 288.185 355.767 288.385 356.06C288.592 356.353 288.895 356.5 289.295 356.5C289.562 356.5 289.818 356.443 290.065 356.33C290.318 356.21 290.542 356.043 290.735 355.83C290.928 355.61 291.075 355.357 291.175 355.07V351.79H291.855V356.18C291.855 356.273 291.875 356.343 291.915 356.39C291.955 356.43 292.015 356.453 292.095 356.46V357C292.015 357.007 291.952 357.01 291.905 357.01C291.858 357.017 291.815 357.02 291.775 357.02C291.642 357.007 291.525 356.953 291.425 356.86C291.332 356.767 291.282 356.653 291.275 356.52L291.255 355.82C291.028 356.22 290.718 356.533 290.325 356.76C289.938 356.987 289.518 357.1 289.065 357.1C288.518 357.1 288.105 356.91 287.825 356.53C287.545 356.15 287.405 355.59 287.405 354.85ZM295.483 357.07C295.129 357.07 294.803 356.997 294.503 356.85C294.203 356.703 293.943 356.507 293.723 356.26C293.509 356.007 293.343 355.72 293.223 355.4C293.103 355.08 293.043 354.75 293.043 354.41C293.043 354.043 293.099 353.7 293.213 353.38C293.333 353.053 293.499 352.763 293.713 352.51C293.933 352.257 294.189 352.06 294.483 351.92C294.776 351.773 295.103 351.7 295.463 351.7C295.909 351.7 296.296 351.813 296.623 352.04C296.956 352.267 297.236 352.547 297.463 352.88V351.79H298.073V357.02C298.073 357.5 297.956 357.903 297.723 358.23C297.496 358.563 297.186 358.813 296.793 358.98C296.406 359.147 295.983 359.23 295.523 359.23C294.929 359.23 294.449 359.123 294.083 358.91C293.716 358.697 293.416 358.41 293.183 358.05L293.603 357.72C293.809 358.047 294.083 358.29 294.423 358.45C294.769 358.61 295.136 358.69 295.523 358.69C295.863 358.69 296.173 358.627 296.453 358.5C296.739 358.38 296.966 358.197 297.133 357.95C297.306 357.703 297.393 357.393 297.393 357.02V355.99C297.193 356.317 296.919 356.58 296.573 356.78C296.226 356.973 295.863 357.07 295.483 357.07ZM295.673 356.5C295.879 356.5 296.076 356.463 296.263 356.39C296.456 356.317 296.633 356.22 296.793 356.1C296.953 355.973 297.086 355.833 297.193 355.68C297.299 355.527 297.366 355.37 297.393 355.21V353.6C297.293 353.347 297.149 353.123 296.963 352.93C296.776 352.73 296.563 352.577 296.323 352.47C296.089 352.357 295.846 352.3 295.593 352.3C295.299 352.3 295.036 352.363 294.803 352.49C294.576 352.61 294.383 352.773 294.223 352.98C294.069 353.18 293.949 353.407 293.863 353.66C293.776 353.913 293.733 354.167 293.733 354.42C293.733 354.7 293.783 354.967 293.883 355.22C293.983 355.467 294.119 355.69 294.293 355.89C294.473 356.083 294.679 356.233 294.913 356.34C295.153 356.447 295.406 356.5 295.673 356.5ZM299.524 354.85V351.79H300.204V354.73C300.204 355.323 300.304 355.767 300.504 356.06C300.711 356.353 301.014 356.5 301.414 356.5C301.681 356.5 301.938 356.443 302.184 356.33C302.438 356.21 302.661 356.043 302.854 355.83C303.048 355.61 303.194 355.357 303.294 355.07V351.79H303.974V356.18C303.974 356.273 303.994 356.343 304.034 356.39C304.074 356.43 304.134 356.453 304.214 356.46V357C304.134 357.007 304.071 357.01 304.024 357.01C303.978 357.017 303.934 357.02 303.894 357.02C303.761 357.007 303.644 356.953 303.544 356.86C303.451 356.767 303.401 356.653 303.394 356.52L303.374 355.82C303.148 356.22 302.838 356.533 302.444 356.76C302.058 356.987 301.638 357.1 301.184 357.1C300.638 357.1 300.224 356.91 299.944 356.53C299.664 356.15 299.524 355.59 299.524 354.85ZM307.222 357.1C306.795 357.1 306.398 357.03 306.032 356.89C305.665 356.75 305.348 356.537 305.082 356.25L305.362 355.77C305.655 356.043 305.948 356.243 306.242 356.37C306.542 356.49 306.858 356.55 307.192 356.55C307.598 356.55 307.928 356.47 308.182 356.31C308.435 356.143 308.562 355.907 308.562 355.6C308.562 355.393 308.498 355.237 308.372 355.13C308.252 355.017 308.075 354.927 307.842 354.86C307.615 354.787 307.342 354.71 307.022 354.63C306.662 354.53 306.358 354.427 306.112 354.32C305.872 354.207 305.688 354.067 305.562 353.9C305.442 353.727 305.382 353.503 305.382 353.23C305.382 352.89 305.465 352.61 305.632 352.39C305.805 352.163 306.038 351.993 306.332 351.88C306.632 351.76 306.965 351.7 307.332 351.7C307.732 351.7 308.085 351.763 308.392 351.89C308.698 352.017 308.948 352.193 309.142 352.42L308.812 352.88C308.625 352.667 308.402 352.51 308.142 352.41C307.888 352.303 307.605 352.25 307.292 352.25C307.078 352.25 306.875 352.28 306.682 352.34C306.488 352.393 306.328 352.487 306.202 352.62C306.082 352.747 306.022 352.923 306.022 353.15C306.022 353.337 306.068 353.483 306.162 353.59C306.255 353.69 306.395 353.777 306.582 353.85C306.768 353.917 306.998 353.99 307.272 354.07C307.665 354.177 308.008 354.287 308.302 354.4C308.595 354.507 308.822 354.647 308.982 354.82C309.142 354.993 309.222 355.237 309.222 355.55C309.222 356.037 309.038 356.417 308.672 356.69C308.305 356.963 307.822 357.1 307.222 357.1ZM312.846 356.75C312.792 356.77 312.709 356.807 312.596 356.86C312.482 356.913 312.346 356.96 312.186 357C312.026 357.04 311.852 357.06 311.666 357.06C311.472 357.06 311.289 357.023 311.116 356.95C310.949 356.877 310.816 356.767 310.716 356.62C310.616 356.467 310.566 356.28 310.566 356.06V352.33H309.846V351.79H310.566V350.03H311.246V351.79H312.446V352.33H311.246V355.87C311.259 356.057 311.326 356.197 311.446 356.29C311.572 356.383 311.716 356.43 311.876 356.43C312.062 356.43 312.232 356.4 312.386 356.34C312.539 356.273 312.632 356.227 312.666 356.2L312.846 356.75Z" fill="#A3A3A3"/>
<path d="M392.088 351.23C391.988 351.117 391.871 351.017 391.738 350.93C391.605 350.837 391.455 350.757 391.288 350.69C391.121 350.623 390.941 350.57 390.748 350.53C390.561 350.49 390.361 350.47 390.148 350.47C389.528 350.47 389.071 350.59 388.778 350.83C388.491 351.063 388.348 351.383 388.348 351.79C388.348 352.07 388.415 352.29 388.548 352.45C388.688 352.61 388.905 352.74 389.198 352.84C389.491 352.94 389.865 353.043 390.318 353.15C390.825 353.257 391.261 353.383 391.628 353.53C391.995 353.677 392.278 353.877 392.478 354.13C392.678 354.377 392.778 354.713 392.778 355.14C392.778 355.467 392.715 355.75 392.588 355.99C392.461 356.23 392.285 356.43 392.058 356.59C391.831 356.75 391.561 356.87 391.248 356.95C390.935 357.023 390.591 357.06 390.218 357.06C389.851 357.06 389.498 357.023 389.158 356.95C388.825 356.87 388.508 356.757 388.208 356.61C387.908 356.457 387.628 356.263 387.368 356.03L387.718 355.46C387.845 355.593 387.995 355.72 388.168 355.84C388.348 355.953 388.545 356.057 388.758 356.15C388.978 356.243 389.211 356.317 389.458 356.37C389.711 356.417 389.971 356.44 390.238 356.44C390.805 356.44 391.245 356.337 391.558 356.13C391.878 355.923 392.038 355.617 392.038 355.21C392.038 354.917 391.958 354.683 391.798 354.51C391.638 354.33 391.398 354.183 391.078 354.07C390.758 353.957 390.365 353.847 389.898 353.74C389.405 353.627 388.988 353.5 388.648 353.36C388.308 353.22 388.051 353.037 387.878 352.81C387.711 352.577 387.628 352.27 387.628 351.89C387.628 351.45 387.735 351.08 387.948 350.78C388.168 350.473 388.468 350.243 388.848 350.09C389.228 349.93 389.665 349.85 390.158 349.85C390.471 349.85 390.761 349.883 391.028 349.95C391.301 350.01 391.551 350.1 391.778 350.22C392.011 350.34 392.228 350.49 392.428 350.67L392.088 351.23ZM396.122 357.1C395.749 357.1 395.402 357.03 395.082 356.89C394.762 356.743 394.485 356.547 394.252 356.3C394.019 356.047 393.835 355.757 393.702 355.43C393.575 355.103 393.512 354.753 393.512 354.38C393.512 353.893 393.622 353.447 393.842 353.04C394.069 352.633 394.379 352.31 394.772 352.07C395.165 351.823 395.612 351.7 396.112 351.7C396.625 351.7 397.072 351.823 397.452 352.07C397.839 352.317 398.142 352.643 398.362 353.05C398.582 353.45 398.692 353.89 398.692 354.37C398.692 354.423 398.692 354.477 398.692 354.53C398.692 354.577 398.689 354.613 398.682 354.64H394.222C394.255 355.013 394.359 355.347 394.532 355.64C394.712 355.927 394.942 356.157 395.222 356.33C395.509 356.497 395.819 356.58 396.152 356.58C396.492 356.58 396.812 356.493 397.112 356.32C397.419 356.147 397.632 355.92 397.752 355.64L398.342 355.8C398.235 356.047 398.072 356.27 397.852 356.47C397.632 356.67 397.372 356.827 397.072 356.94C396.779 357.047 396.462 357.1 396.122 357.1ZM394.202 354.15H398.052C398.025 353.77 397.922 353.437 397.742 353.15C397.569 352.863 397.339 352.64 397.052 352.48C396.772 352.313 396.462 352.23 396.122 352.23C395.782 352.23 395.472 352.313 395.192 352.48C394.912 352.64 394.682 352.867 394.502 353.16C394.329 353.447 394.229 353.777 394.202 354.15ZM402.401 357.1C401.968 357.1 401.578 356.987 401.231 356.76C400.891 356.533 400.621 356.253 400.421 355.92V359.13H399.741V351.79H400.351V352.8C400.558 352.473 400.835 352.21 401.181 352.01C401.528 351.803 401.898 351.7 402.291 351.7C402.651 351.7 402.981 351.777 403.281 351.93C403.581 352.077 403.841 352.277 404.061 352.53C404.281 352.783 404.451 353.073 404.571 353.4C404.698 353.72 404.761 354.053 404.761 354.4C404.761 354.887 404.661 355.337 404.461 355.75C404.268 356.157 403.995 356.483 403.641 356.73C403.288 356.977 402.875 357.1 402.401 357.1ZM402.211 356.5C402.498 356.5 402.755 356.443 402.981 356.33C403.208 356.21 403.401 356.05 403.561 355.85C403.728 355.65 403.855 355.427 403.941 355.18C404.028 354.927 404.071 354.667 404.071 354.4C404.071 354.12 404.021 353.853 403.921 353.6C403.828 353.347 403.691 353.123 403.511 352.93C403.331 352.737 403.125 352.583 402.891 352.47C402.658 352.357 402.405 352.3 402.131 352.3C401.958 352.3 401.778 352.333 401.591 352.4C401.405 352.467 401.225 352.563 401.051 352.69C400.885 352.81 400.745 352.947 400.631 353.1C400.518 353.253 400.448 353.417 400.421 353.59V355.19C400.528 355.437 400.671 355.66 400.851 355.86C401.031 356.053 401.238 356.21 401.471 356.33C401.711 356.443 401.958 356.5 402.211 356.5ZM408.335 356.75C408.282 356.77 408.198 356.807 408.085 356.86C407.972 356.913 407.835 356.96 407.675 357C407.515 357.04 407.342 357.06 407.155 357.06C406.962 357.06 406.778 357.023 406.605 356.95C406.438 356.877 406.305 356.767 406.205 356.62C406.105 356.467 406.055 356.28 406.055 356.06V352.33H405.335V351.79H406.055V350.03H406.735V351.79H407.935V352.33H406.735V355.87C406.748 356.057 406.815 356.197 406.935 356.29C407.062 356.383 407.205 356.43 407.365 356.43C407.552 356.43 407.722 356.4 407.875 356.34C408.028 356.273 408.122 356.227 408.155 356.2L408.335 356.75ZM411.347 357.1C410.973 357.1 410.627 357.03 410.307 356.89C409.987 356.743 409.71 356.547 409.477 356.3C409.243 356.047 409.06 355.757 408.927 355.43C408.8 355.103 408.737 354.753 408.737 354.38C408.737 353.893 408.847 353.447 409.067 353.04C409.293 352.633 409.603 352.31 409.997 352.07C410.39 351.823 410.837 351.7 411.337 351.7C411.85 351.7 412.297 351.823 412.677 352.07C413.063 352.317 413.367 352.643 413.587 353.05C413.807 353.45 413.917 353.89 413.917 354.37C413.917 354.423 413.917 354.477 413.917 354.53C413.917 354.577 413.913 354.613 413.907 354.64H409.447C409.48 355.013 409.583 355.347 409.757 355.64C409.937 355.927 410.167 356.157 410.447 356.33C410.733 356.497 411.043 356.58 411.377 356.58C411.717 356.58 412.037 356.493 412.337 356.32C412.643 356.147 412.857 355.92 412.977 355.64L413.567 355.8C413.46 356.047 413.297 356.27 413.077 356.47C412.857 356.67 412.597 356.827 412.297 356.94C412.003 357.047 411.687 357.1 411.347 357.1ZM409.427 354.15H413.277C413.25 353.77 413.147 353.437 412.967 353.15C412.793 352.863 412.563 352.64 412.277 352.48C411.997 352.313 411.687 352.23 411.347 352.23C411.007 352.23 410.697 352.313 410.417 352.48C410.137 352.64 409.907 352.867 409.727 353.16C409.553 353.447 409.453 353.777 409.427 354.15ZM422.716 357H422.036V354.09C422.036 353.483 421.939 353.037 421.746 352.75C421.552 352.463 421.266 352.32 420.886 352.32C420.492 352.32 420.139 352.46 419.826 352.74C419.519 353.02 419.302 353.38 419.176 353.82V357H418.496V354.09C418.496 353.477 418.402 353.03 418.216 352.75C418.029 352.463 417.742 352.32 417.356 352.32C416.969 352.32 416.619 352.457 416.306 352.73C415.992 353.003 415.772 353.363 415.646 353.81V357H414.966V351.79H415.586V352.97C415.806 352.563 416.086 352.25 416.426 352.03C416.772 351.81 417.156 351.7 417.576 351.7C418.009 351.7 418.359 351.823 418.626 352.07C418.892 352.317 419.056 352.64 419.116 353.04C419.356 352.6 419.642 352.267 419.976 352.04C420.316 351.813 420.699 351.7 421.126 351.7C421.419 351.7 421.666 351.753 421.866 351.86C422.072 351.967 422.236 352.12 422.356 352.32C422.482 352.513 422.572 352.75 422.626 353.03C422.686 353.303 422.716 353.61 422.716 353.95V357ZM426.705 357.1C426.299 357.1 425.922 356.997 425.575 356.79C425.229 356.577 424.959 356.31 424.765 355.99V357H424.155V349.7H424.835V352.88C425.069 352.527 425.349 352.243 425.675 352.03C426.002 351.81 426.382 351.7 426.815 351.7C427.182 351.7 427.509 351.777 427.795 351.93C428.089 352.083 428.339 352.29 428.545 352.55C428.752 352.803 428.909 353.093 429.015 353.42C429.122 353.74 429.175 354.07 429.175 354.41C429.175 354.777 429.112 355.12 428.985 355.44C428.865 355.76 428.692 356.047 428.465 356.3C428.239 356.547 427.975 356.743 427.675 356.89C427.382 357.03 427.059 357.1 426.705 357.1ZM426.545 356.5C426.825 356.5 427.085 356.443 427.325 356.33C427.565 356.217 427.772 356.06 427.945 355.86C428.119 355.66 428.252 355.437 428.345 355.19C428.439 354.937 428.485 354.677 428.485 354.41C428.485 354.043 428.405 353.7 428.245 353.38C428.092 353.053 427.875 352.793 427.595 352.6C427.322 352.4 426.999 352.3 426.625 352.3C426.359 352.3 426.109 352.36 425.875 352.48C425.649 352.6 425.445 352.76 425.265 352.96C425.092 353.153 424.949 353.367 424.835 353.6V355.22C424.862 355.4 424.932 355.57 425.045 355.73C425.159 355.883 425.299 356.017 425.465 356.13C425.639 356.243 425.819 356.333 426.005 356.4C426.192 356.467 426.372 356.5 426.545 356.5ZM432.577 357.1C432.204 357.1 431.857 357.03 431.537 356.89C431.217 356.743 430.94 356.547 430.707 356.3C430.474 356.047 430.29 355.757 430.157 355.43C430.03 355.103 429.967 354.753 429.967 354.38C429.967 353.893 430.077 353.447 430.297 353.04C430.524 352.633 430.834 352.31 431.227 352.07C431.62 351.823 432.067 351.7 432.567 351.7C433.08 351.7 433.527 351.823 433.907 352.07C434.294 352.317 434.597 352.643 434.817 353.05C435.037 353.45 435.147 353.89 435.147 354.37C435.147 354.423 435.147 354.477 435.147 354.53C435.147 354.577 435.144 354.613 435.137 354.64H430.677C430.71 355.013 430.814 355.347 430.987 355.64C431.167 355.927 431.397 356.157 431.677 356.33C431.964 356.497 432.274 356.58 432.607 356.58C432.947 356.58 433.267 356.493 433.567 356.32C433.874 356.147 434.087 355.92 434.207 355.64L434.797 355.8C434.69 356.047 434.527 356.27 434.307 356.47C434.087 356.67 433.827 356.827 433.527 356.94C433.234 357.047 432.917 357.1 432.577 357.1ZM430.657 354.15H434.507C434.48 353.77 434.377 353.437 434.197 353.15C434.024 352.863 433.794 352.64 433.507 352.48C433.227 352.313 432.917 352.23 432.577 352.23C432.237 352.23 431.927 352.313 431.647 352.48C431.367 352.64 431.137 352.867 430.957 353.16C430.784 353.447 430.684 353.777 430.657 354.15ZM438.796 352.39C438.343 352.403 437.943 352.53 437.596 352.77C437.256 353.01 437.016 353.34 436.876 353.76V357H436.196V351.79H436.836V353.04C437.016 352.673 437.253 352.377 437.546 352.15C437.846 351.923 438.163 351.797 438.496 351.77C438.563 351.763 438.62 351.76 438.666 351.76C438.72 351.76 438.763 351.763 438.796 351.77V352.39Z" fill="#A3A3A3"/>
<path d="M505.532 357.05C505.032 357.05 504.579 356.95 504.172 356.75C503.765 356.55 503.415 356.28 503.122 355.94C502.829 355.593 502.602 355.207 502.442 354.78C502.282 354.347 502.202 353.903 502.202 353.45C502.202 352.977 502.285 352.527 502.452 352.1C502.619 351.667 502.852 351.283 503.152 350.95C503.459 350.61 503.815 350.343 504.222 350.15C504.629 349.95 505.069 349.85 505.542 349.85C506.042 349.85 506.495 349.953 506.902 350.16C507.309 350.367 507.655 350.643 507.942 350.99C508.235 351.337 508.462 351.723 508.622 352.15C508.782 352.577 508.862 353.013 508.862 353.46C508.862 353.933 508.779 354.387 508.612 354.82C508.445 355.247 508.212 355.63 507.912 355.97C507.612 356.303 507.259 356.567 506.852 356.76C506.445 356.953 506.005 357.05 505.532 357.05ZM502.902 353.45C502.902 353.837 502.965 354.21 503.092 354.57C503.219 354.923 503.399 355.24 503.632 355.52C503.865 355.793 504.142 356.013 504.462 356.18C504.789 356.34 505.145 356.42 505.532 356.42C505.939 356.42 506.302 356.337 506.622 356.17C506.949 355.997 507.225 355.77 507.452 355.49C507.685 355.203 507.862 354.883 507.982 354.53C508.102 354.177 508.162 353.817 508.162 353.45C508.162 353.063 508.099 352.693 507.972 352.34C507.845 351.987 507.662 351.67 507.422 351.39C507.189 351.11 506.912 350.89 506.592 350.73C506.272 350.57 505.919 350.49 505.532 350.49C505.132 350.49 504.769 350.573 504.442 350.74C504.122 350.907 503.845 351.133 503.612 351.42C503.385 351.7 503.209 352.017 503.082 352.37C502.962 352.723 502.902 353.083 502.902 353.45ZM512.302 357.1C511.922 357.1 511.572 357.03 511.252 356.89C510.939 356.743 510.662 356.543 510.422 356.29C510.189 356.037 510.005 355.747 509.872 355.42C509.745 355.093 509.682 354.747 509.682 354.38C509.682 353.887 509.792 353.437 510.012 353.03C510.232 352.623 510.539 352.3 510.932 352.06C511.325 351.82 511.779 351.7 512.292 351.7C512.779 351.7 513.209 351.813 513.582 352.04C513.955 352.26 514.232 352.56 514.412 352.94L513.752 353.15C513.605 352.883 513.399 352.677 513.132 352.53C512.872 352.377 512.582 352.3 512.262 352.3C511.915 352.3 511.599 352.39 511.312 352.57C511.025 352.75 510.795 352.997 510.622 353.31C510.455 353.623 510.372 353.98 510.372 354.38C510.372 354.773 510.459 355.13 510.632 355.45C510.805 355.77 511.035 356.027 511.322 356.22C511.609 356.407 511.925 356.5 512.272 356.5C512.499 356.5 512.715 356.46 512.922 356.38C513.135 356.3 513.319 356.193 513.472 356.06C513.632 355.92 513.739 355.77 513.792 355.61L514.462 355.81C514.369 356.057 514.212 356.28 513.992 356.48C513.779 356.673 513.525 356.827 513.232 356.94C512.945 357.047 512.635 357.1 512.302 357.1ZM518.03 356.75C517.977 356.77 517.893 356.807 517.78 356.86C517.667 356.913 517.53 356.96 517.37 357C517.21 357.04 517.037 357.06 516.85 357.06C516.657 357.06 516.473 357.023 516.3 356.95C516.133 356.877 516 356.767 515.9 356.62C515.8 356.467 515.75 356.28 515.75 356.06V352.33H515.03V351.79H515.75V350.03H516.43V351.79H517.63V352.33H516.43V355.87C516.443 356.057 516.51 356.197 516.63 356.29C516.757 356.383 516.9 356.43 517.06 356.43C517.247 356.43 517.417 356.4 517.57 356.34C517.723 356.273 517.817 356.227 517.85 356.2L518.03 356.75ZM521.012 357.1C520.639 357.1 520.292 357.03 519.972 356.89C519.659 356.743 519.385 356.547 519.152 356.3C518.925 356.047 518.749 355.76 518.622 355.44C518.495 355.113 518.432 354.77 518.432 354.41C518.432 354.037 518.495 353.69 518.622 353.37C518.749 353.043 518.929 352.757 519.162 352.51C519.395 352.257 519.669 352.06 519.982 351.92C520.302 351.773 520.649 351.7 521.022 351.7C521.395 351.7 521.739 351.773 522.052 351.92C522.365 352.06 522.639 352.257 522.872 352.51C523.105 352.757 523.285 353.043 523.412 353.37C523.539 353.69 523.602 354.037 523.602 354.41C523.602 354.77 523.539 355.113 523.412 355.44C523.285 355.76 523.105 356.047 522.872 356.3C522.645 356.547 522.372 356.743 522.052 356.89C521.739 357.03 521.392 357.1 521.012 357.1ZM519.122 354.42C519.122 354.807 519.205 355.16 519.372 355.48C519.545 355.793 519.775 356.043 520.062 356.23C520.349 356.41 520.665 356.5 521.012 356.5C521.359 356.5 521.675 356.407 521.962 356.22C522.249 356.033 522.479 355.78 522.652 355.46C522.825 355.133 522.912 354.78 522.912 354.4C522.912 354.013 522.825 353.66 522.652 353.34C522.479 353.02 522.249 352.767 521.962 352.58C521.675 352.393 521.359 352.3 521.012 352.3C520.665 352.3 520.349 352.397 520.062 352.59C519.782 352.783 519.555 353.04 519.382 353.36C519.209 353.673 519.122 354.027 519.122 354.42ZM527.289 357.1C526.882 357.1 526.506 356.997 526.159 356.79C525.812 356.577 525.542 356.31 525.349 355.99V357H524.739V349.7H525.419V352.88C525.652 352.527 525.932 352.243 526.259 352.03C526.586 351.81 526.966 351.7 527.399 351.7C527.766 351.7 528.092 351.777 528.379 351.93C528.672 352.083 528.922 352.29 529.129 352.55C529.336 352.803 529.492 353.093 529.599 353.42C529.706 353.74 529.759 354.07 529.759 354.41C529.759 354.777 529.696 355.12 529.569 355.44C529.449 355.76 529.276 356.047 529.049 356.3C528.822 356.547 528.559 356.743 528.259 356.89C527.966 357.03 527.642 357.1 527.289 357.1ZM527.129 356.5C527.409 356.5 527.669 356.443 527.909 356.33C528.149 356.217 528.356 356.06 528.529 355.86C528.702 355.66 528.836 355.437 528.929 355.19C529.022 354.937 529.069 354.677 529.069 354.41C529.069 354.043 528.989 353.7 528.829 353.38C528.676 353.053 528.459 352.793 528.179 352.6C527.906 352.4 527.582 352.3 527.209 352.3C526.942 352.3 526.692 352.36 526.459 352.48C526.232 352.6 526.029 352.76 525.849 352.96C525.676 353.153 525.532 353.367 525.419 353.6V355.22C525.446 355.4 525.516 355.57 525.629 355.73C525.742 355.883 525.882 356.017 526.049 356.13C526.222 356.243 526.402 356.333 526.589 356.4C526.776 356.467 526.956 356.5 527.129 356.5ZM533.161 357.1C532.788 357.1 532.441 357.03 532.121 356.89C531.801 356.743 531.524 356.547 531.291 356.3C531.058 356.047 530.874 355.757 530.741 355.43C530.614 355.103 530.551 354.753 530.551 354.38C530.551 353.893 530.661 353.447 530.881 353.04C531.108 352.633 531.418 352.31 531.811 352.07C532.204 351.823 532.651 351.7 533.151 351.7C533.664 351.7 534.111 351.823 534.491 352.07C534.878 352.317 535.181 352.643 535.401 353.05C535.621 353.45 535.731 353.89 535.731 354.37C535.731 354.423 535.731 354.477 535.731 354.53C535.731 354.577 535.728 354.613 535.721 354.64H531.261C531.294 355.013 531.398 355.347 531.571 355.64C531.751 355.927 531.981 356.157 532.261 356.33C532.548 356.497 532.858 356.58 533.191 356.58C533.531 356.58 533.851 356.493 534.151 356.32C534.458 356.147 534.671 355.92 534.791 355.64L535.381 355.8C535.274 356.047 535.111 356.27 534.891 356.47C534.671 356.67 534.411 356.827 534.111 356.94C533.818 357.047 533.501 357.1 533.161 357.1ZM531.241 354.15H535.091C535.064 353.77 534.961 353.437 534.781 353.15C534.608 352.863 534.378 352.64 534.091 352.48C533.811 352.313 533.501 352.23 533.161 352.23C532.821 352.23 532.511 352.313 532.231 352.48C531.951 352.64 531.721 352.867 531.541 353.16C531.368 353.447 531.268 353.777 531.241 354.15ZM539.38 352.39C538.927 352.403 538.527 352.53 538.18 352.77C537.84 353.01 537.6 353.34 537.46 353.76V357H536.78V351.79H537.42V353.04C537.6 352.673 537.837 352.377 538.13 352.15C538.43 351.923 538.747 351.797 539.08 351.77C539.147 351.763 539.203 351.76 539.25 351.76C539.303 351.76 539.347 351.763 539.38 351.77V352.39Z" fill="#A3A3A3"/>
<path d="M28.856 343C28.856 342.773 28.876 342.547 28.916 342.32C28.956 342.087 29.0327 341.857 29.146 341.63C29.2593 341.403 29.426 341.187 29.646 340.98C29.866 340.767 30.156 340.567 30.516 340.38C30.7093 340.28 30.9093 340.183 31.116 340.09C31.3227 339.99 31.516 339.883 31.696 339.77C31.8827 339.65 32.0293 339.517 32.136 339.37C32.2493 339.217 32.306 339.037 32.306 338.83C32.306 338.663 32.256 338.5 32.156 338.34C32.0627 338.18 31.916 338.05 31.716 337.95C31.5227 337.85 31.2793 337.8 30.986 337.8C30.7727 337.8 30.5793 337.83 30.406 337.89C30.2327 337.95 30.0793 338.027 29.946 338.12C29.8127 338.207 29.6993 338.297 29.606 338.39C29.5127 338.477 29.436 338.55 29.376 338.61L28.946 338.14C28.9793 338.1 29.0527 338.03 29.166 337.93C29.286 337.823 29.436 337.713 29.616 337.6C29.8027 337.487 30.0193 337.39 30.266 337.31C30.5193 337.23 30.796 337.19 31.096 337.19C31.5027 337.19 31.8493 337.263 32.136 337.41C32.4293 337.55 32.6527 337.74 32.806 337.98C32.9593 338.22 33.036 338.48 33.036 338.76C33.036 339.033 32.976 339.27 32.856 339.47C32.7427 339.663 32.5927 339.833 32.406 339.98C32.226 340.12 32.036 340.243 31.836 340.35C31.6427 340.45 31.466 340.537 31.306 340.61C30.9927 340.757 30.7293 340.903 30.516 341.05C30.3027 341.197 30.1327 341.347 30.006 341.5C29.8793 341.647 29.7793 341.793 29.706 341.94C29.6393 342.08 29.5927 342.227 29.566 342.38H33.146V343H28.856ZM39.2009 340.07C39.2009 340.657 39.0909 341.18 38.8709 341.64C38.6575 342.093 38.3609 342.45 37.9809 342.71C37.6009 342.97 37.1709 343.1 36.6909 343.1C36.2109 343.1 35.7809 342.97 35.4009 342.71C35.0275 342.45 34.7309 342.093 34.5109 341.64C34.2909 341.18 34.1809 340.657 34.1809 340.07C34.1809 339.483 34.2909 338.963 34.5109 338.51C34.7309 338.05 35.0275 337.69 35.4009 337.43C35.7809 337.163 36.2109 337.03 36.6909 337.03C37.1709 337.03 37.6009 337.163 37.9809 337.43C38.3609 337.69 38.6575 338.05 38.8709 338.51C39.0909 338.963 39.2009 339.483 39.2009 340.07ZM38.5109 340.07C38.5109 339.597 38.4342 339.18 38.2809 338.82C38.1275 338.46 37.9142 338.18 37.6409 337.98C37.3675 337.773 37.0509 337.67 36.6909 337.67C36.3309 337.67 36.0142 337.773 35.7409 337.98C35.4675 338.18 35.2509 338.46 35.0909 338.82C34.9375 339.18 34.8609 339.597 34.8609 340.07C34.8609 340.543 34.9375 340.96 35.0909 341.32C35.2509 341.68 35.4675 341.96 35.7409 342.16C36.0142 342.36 36.3309 342.46 36.6909 342.46C37.0509 342.46 37.3675 342.36 37.6409 342.16C37.9142 341.953 38.1275 341.673 38.2809 341.32C38.4342 340.96 38.5109 340.543 38.5109 340.07ZM45.3239 340.07C45.3239 340.657 45.2139 341.18 44.9939 341.64C44.7806 342.093 44.4839 342.45 44.1039 342.71C43.7239 342.97 43.2939 343.1 42.8139 343.1C42.3339 343.1 41.9039 342.97 41.5239 342.71C41.1506 342.45 40.8539 342.093 40.6339 341.64C40.4139 341.18 40.3039 340.657 40.3039 340.07C40.3039 339.483 40.4139 338.963 40.6339 338.51C40.8539 338.05 41.1506 337.69 41.5239 337.43C41.9039 337.163 42.3339 337.03 42.8139 337.03C43.2939 337.03 43.7239 337.163 44.1039 337.43C44.4839 337.69 44.7806 338.05 44.9939 338.51C45.2139 338.963 45.3239 339.483 45.3239 340.07ZM44.6339 340.07C44.6339 339.597 44.5572 339.18 44.4039 338.82C44.2506 338.46 44.0372 338.18 43.7639 337.98C43.4906 337.773 43.1739 337.67 42.8139 337.67C42.4539 337.67 42.1372 337.773 41.8639 337.98C41.5906 338.18 41.3739 338.46 41.2139 338.82C41.0606 339.18 40.9839 339.597 40.9839 340.07C40.9839 340.543 41.0606 340.96 41.2139 341.32C41.3739 341.68 41.5906 341.96 41.8639 342.16C42.1372 342.36 42.4539 342.46 42.8139 342.46C43.1739 342.46 43.4906 342.36 43.7639 342.16C44.0372 341.953 44.2506 341.673 44.4039 341.32C44.5572 340.96 44.6339 340.543 44.6339 340.07ZM51.447 340.07C51.447 340.657 51.337 341.18 51.117 341.64C50.9036 342.093 50.607 342.45 50.227 342.71C49.847 342.97 49.417 343.1 48.937 343.1C48.457 343.1 48.027 342.97 47.647 342.71C47.2736 342.45 46.977 342.093 46.757 341.64C46.537 341.18 46.427 340.657 46.427 340.07C46.427 339.483 46.537 338.963 46.757 338.51C46.977 338.05 47.2736 337.69 47.647 337.43C48.027 337.163 48.457 337.03 48.937 337.03C49.417 337.03 49.847 337.163 50.227 337.43C50.607 337.69 50.9036 338.05 51.117 338.51C51.337 338.963 51.447 339.483 51.447 340.07ZM50.757 340.07C50.757 339.597 50.6803 339.18 50.527 338.82C50.3736 338.46 50.1603 338.18 49.887 337.98C49.6136 337.773 49.297 337.67 48.937 337.67C48.577 337.67 48.2603 337.773 47.987 337.98C47.7136 338.18 47.497 338.46 47.337 338.82C47.1836 339.18 47.107 339.597 47.107 340.07C47.107 340.543 47.1836 340.96 47.337 341.32C47.497 341.68 47.7136 341.96 47.987 342.16C48.2603 342.36 48.577 342.46 48.937 342.46C49.297 342.46 49.6136 342.36 49.887 342.16C50.1603 341.953 50.3736 341.673 50.527 341.32C50.6803 340.96 50.757 340.543 50.757 340.07Z" fill="#A3A3A3"/>
<path d="M31.7191 284.64C32.0191 284.687 32.2757 284.793 32.4891 284.96C32.7024 285.127 32.8691 285.337 32.9891 285.59C33.1091 285.843 33.1691 286.13 33.1691 286.45C33.1691 286.85 33.0724 287.203 32.8791 287.51C32.6857 287.817 32.4157 288.053 32.0691 288.22C31.7224 288.387 31.3191 288.47 30.8591 288.47C30.3524 288.47 29.9091 288.367 29.5291 288.16C29.1491 287.96 28.8624 287.68 28.6691 287.32L29.1391 286.89C29.2857 287.177 29.5024 287.407 29.7891 287.58C30.0757 287.76 30.4324 287.85 30.8591 287.85C31.3524 287.85 31.7424 287.727 32.0291 287.48C32.3224 287.24 32.4691 286.893 32.4691 286.44C32.4691 285.987 32.3157 285.627 32.0091 285.36C31.7091 285.087 31.2791 284.95 30.7191 284.95H30.4691V284.37H30.7391C31.2524 284.37 31.6457 284.25 31.9191 284.01C32.1924 283.77 32.3291 283.463 32.3291 283.09C32.3291 282.817 32.2657 282.59 32.1391 282.41C32.0124 282.23 31.8391 282.093 31.6191 282C31.4057 281.907 31.1591 281.86 30.8791 281.86C30.4991 281.86 30.1624 281.947 29.8691 282.12C29.5824 282.287 29.3657 282.52 29.2191 282.82L28.7791 282.4C28.8924 282.167 29.0557 281.963 29.2691 281.79C29.4824 281.617 29.7324 281.483 30.0191 281.39C30.3057 281.29 30.6124 281.24 30.9391 281.24C31.3524 281.24 31.7157 281.317 32.0291 281.47C32.3424 281.617 32.5891 281.823 32.7691 282.09C32.9491 282.357 33.0391 282.67 33.0391 283.03C33.0391 283.297 32.9857 283.543 32.8791 283.77C32.7724 283.997 32.6191 284.187 32.4191 284.34C32.2257 284.493 31.9924 284.593 31.7191 284.64ZM39.2009 284.07C39.2009 284.657 39.0909 285.18 38.8709 285.64C38.6575 286.093 38.3609 286.45 37.9809 286.71C37.6009 286.97 37.1709 287.1 36.6909 287.1C36.2109 287.1 35.7809 286.97 35.4009 286.71C35.0275 286.45 34.7309 286.093 34.5109 285.64C34.2909 285.18 34.1809 284.657 34.1809 284.07C34.1809 283.483 34.2909 282.963 34.5109 282.51C34.7309 282.05 35.0275 281.69 35.4009 281.43C35.7809 281.163 36.2109 281.03 36.6909 281.03C37.1709 281.03 37.6009 281.163 37.9809 281.43C38.3609 281.69 38.6575 282.05 38.8709 282.51C39.0909 282.963 39.2009 283.483 39.2009 284.07ZM38.5109 284.07C38.5109 283.597 38.4342 283.18 38.2809 282.82C38.1275 282.46 37.9142 282.18 37.6409 281.98C37.3675 281.773 37.0509 281.67 36.6909 281.67C36.3309 281.67 36.0142 281.773 35.7409 281.98C35.4675 282.18 35.2509 282.46 35.0909 282.82C34.9375 283.18 34.8609 283.597 34.8609 284.07C34.8609 284.543 34.9375 284.96 35.0909 285.32C35.2509 285.68 35.4675 285.96 35.7409 286.16C36.0142 286.36 36.3309 286.46 36.6909 286.46C37.0509 286.46 37.3675 286.36 37.6409 286.16C37.9142 285.953 38.1275 285.673 38.2809 285.32C38.4342 284.96 38.5109 284.543 38.5109 284.07ZM45.3239 284.07C45.3239 284.657 45.2139 285.18 44.9939 285.64C44.7806 286.093 44.4839 286.45 44.1039 286.71C43.7239 286.97 43.2939 287.1 42.8139 287.1C42.3339 287.1 41.9039 286.97 41.5239 286.71C41.1506 286.45 40.8539 286.093 40.6339 285.64C40.4139 285.18 40.3039 284.657 40.3039 284.07C40.3039 283.483 40.4139 282.963 40.6339 282.51C40.8539 282.05 41.1506 281.69 41.5239 281.43C41.9039 281.163 42.3339 281.03 42.8139 281.03C43.2939 281.03 43.7239 281.163 44.1039 281.43C44.4839 281.69 44.7806 282.05 44.9939 282.51C45.2139 282.963 45.3239 283.483 45.3239 284.07ZM44.6339 284.07C44.6339 283.597 44.5572 283.18 44.4039 282.82C44.2506 282.46 44.0372 282.18 43.7639 281.98C43.4906 281.773 43.1739 281.67 42.8139 281.67C42.4539 281.67 42.1372 281.773 41.8639 281.98C41.5906 282.18 41.3739 282.46 41.2139 282.82C41.0606 283.18 40.9839 283.597 40.9839 284.07C40.9839 284.543 41.0606 284.96 41.2139 285.32C41.3739 285.68 41.5906 285.96 41.8639 286.16C42.1372 286.36 42.4539 286.46 42.8139 286.46C43.1739 286.46 43.4906 286.36 43.7639 286.16C44.0372 285.953 44.2506 285.673 44.4039 285.32C44.5572 284.96 44.6339 284.543 44.6339 284.07ZM51.447 284.07C51.447 284.657 51.337 285.18 51.117 285.64C50.9036 286.093 50.607 286.45 50.227 286.71C49.847 286.97 49.417 287.1 48.937 287.1C48.457 287.1 48.027 286.97 47.647 286.71C47.2736 286.45 46.977 286.093 46.757 285.64C46.537 285.18 46.427 284.657 46.427 284.07C46.427 283.483 46.537 282.963 46.757 282.51C46.977 282.05 47.2736 281.69 47.647 281.43C48.027 281.163 48.457 281.03 48.937 281.03C49.417 281.03 49.847 281.163 50.227 281.43C50.607 281.69 50.9036 282.05 51.117 282.51C51.337 282.963 51.447 283.483 51.447 284.07ZM50.757 284.07C50.757 283.597 50.6803 283.18 50.527 282.82C50.3736 282.46 50.1603 282.18 49.887 281.98C49.6136 281.773 49.297 281.67 48.937 281.67C48.577 281.67 48.2603 281.773 47.987 281.98C47.7136 282.18 47.497 282.46 47.337 282.82C47.1836 283.18 47.107 283.597 47.107 284.07C47.107 284.543 47.1836 284.96 47.337 285.32C47.497 285.68 47.7136 285.96 47.987 286.16C48.2603 286.36 48.577 286.46 48.937 286.46C49.297 286.46 49.6136 286.36 49.887 286.16C50.1603 285.953 50.3736 285.673 50.527 285.32C50.6803 284.96 50.757 284.543 50.757 284.07Z" fill="#A3A3A3"/>
<path d="M31.7319 232.27V230.49H28.4019V229.89L31.9519 225.29H32.4119V229.87H33.2919V230.49H32.4119V232.27H31.7319ZM29.1219 229.87H31.8019V226.36L29.1219 229.87ZM39.2009 228.07C39.2009 228.657 39.0909 229.18 38.8709 229.64C38.6575 230.093 38.3609 230.45 37.9809 230.71C37.6009 230.97 37.1709 231.1 36.6909 231.1C36.2109 231.1 35.7809 230.97 35.4009 230.71C35.0275 230.45 34.7309 230.093 34.5109 229.64C34.2909 229.18 34.1809 228.657 34.1809 228.07C34.1809 227.483 34.2909 226.963 34.5109 226.51C34.7309 226.05 35.0275 225.69 35.4009 225.43C35.7809 225.163 36.2109 225.03 36.6909 225.03C37.1709 225.03 37.6009 225.163 37.9809 225.43C38.3609 225.69 38.6575 226.05 38.8709 226.51C39.0909 226.963 39.2009 227.483 39.2009 228.07ZM38.5109 228.07C38.5109 227.597 38.4342 227.18 38.2809 226.82C38.1275 226.46 37.9142 226.18 37.6409 225.98C37.3675 225.773 37.0509 225.67 36.6909 225.67C36.3309 225.67 36.0142 225.773 35.7409 225.98C35.4675 226.18 35.2509 226.46 35.0909 226.82C34.9375 227.18 34.8609 227.597 34.8609 228.07C34.8609 228.543 34.9375 228.96 35.0909 229.32C35.2509 229.68 35.4675 229.96 35.7409 230.16C36.0142 230.36 36.3309 230.46 36.6909 230.46C37.0509 230.46 37.3675 230.36 37.6409 230.16C37.9142 229.953 38.1275 229.673 38.2809 229.32C38.4342 228.96 38.5109 228.543 38.5109 228.07ZM45.3239 228.07C45.3239 228.657 45.2139 229.18 44.9939 229.64C44.7806 230.093 44.4839 230.45 44.1039 230.71C43.7239 230.97 43.2939 231.1 42.8139 231.1C42.3339 231.1 41.9039 230.97 41.5239 230.71C41.1506 230.45 40.8539 230.093 40.6339 229.64C40.4139 229.18 40.3039 228.657 40.3039 228.07C40.3039 227.483 40.4139 226.963 40.6339 226.51C40.8539 226.05 41.1506 225.69 41.5239 225.43C41.9039 225.163 42.3339 225.03 42.8139 225.03C43.2939 225.03 43.7239 225.163 44.1039 225.43C44.4839 225.69 44.7806 226.05 44.9939 226.51C45.2139 226.963 45.3239 227.483 45.3239 228.07ZM44.6339 228.07C44.6339 227.597 44.5572 227.18 44.4039 226.82C44.2506 226.46 44.0372 226.18 43.7639 225.98C43.4906 225.773 43.1739 225.67 42.8139 225.67C42.4539 225.67 42.1372 225.773 41.8639 225.98C41.5906 226.18 41.3739 226.46 41.2139 226.82C41.0606 227.18 40.9839 227.597 40.9839 228.07C40.9839 228.543 41.0606 228.96 41.2139 229.32C41.3739 229.68 41.5906 229.96 41.8639 230.16C42.1372 230.36 42.4539 230.46 42.8139 230.46C43.1739 230.46 43.4906 230.36 43.7639 230.16C44.0372 229.953 44.2506 229.673 44.4039 229.32C44.5572 228.96 44.6339 228.543 44.6339 228.07ZM51.447 228.07C51.447 228.657 51.337 229.18 51.117 229.64C50.9036 230.093 50.607 230.45 50.227 230.71C49.847 230.97 49.417 231.1 48.937 231.1C48.457 231.1 48.027 230.97 47.647 230.71C47.2736 230.45 46.977 230.093 46.757 229.64C46.537 229.18 46.427 228.657 46.427 228.07C46.427 227.483 46.537 226.963 46.757 226.51C46.977 226.05 47.2736 225.69 47.647 225.43C48.027 225.163 48.457 225.03 48.937 225.03C49.417 225.03 49.847 225.163 50.227 225.43C50.607 225.69 50.9036 226.05 51.117 226.51C51.337 226.963 51.447 227.483 51.447 228.07ZM50.757 228.07C50.757 227.597 50.6803 227.18 50.527 226.82C50.3736 226.46 50.1603 226.18 49.887 225.98C49.6136 225.773 49.297 225.67 48.937 225.67C48.577 225.67 48.2603 225.773 47.987 225.98C47.7136 226.18 47.497 226.46 47.337 226.82C47.1836 227.18 47.107 227.597 47.107 228.07C47.107 228.543 47.1836 228.96 47.337 229.32C47.497 229.68 47.7136 229.96 47.987 230.16C48.2603 230.36 48.577 230.46 48.937 230.46C49.297 230.46 49.6136 230.36 49.887 230.16C50.1603 229.953 50.3736 229.673 50.527 229.32C50.6803 228.96 50.757 228.543 50.757 228.07Z" fill="#A3A3A3"/>
<path d="M30.8016 176.49C30.3016 176.49 29.8483 176.363 29.4416 176.11C29.035 175.863 28.7316 175.537 28.5316 175.13L28.9816 174.79C29.1683 175.117 29.4216 175.38 29.7416 175.58C30.0683 175.78 30.425 175.88 30.8116 175.88C31.145 175.88 31.4416 175.807 31.7016 175.66C31.9683 175.513 32.1783 175.31 32.3316 175.05C32.4916 174.79 32.5716 174.49 32.5716 174.15C32.5716 173.823 32.495 173.537 32.3416 173.29C32.195 173.037 31.9916 172.84 31.7316 172.7C31.4783 172.56 31.1916 172.49 30.8716 172.49C30.565 172.49 30.2716 172.56 29.9916 172.7C29.7116 172.833 29.485 173.03 29.3116 173.29H28.6816L29.4716 169.29H32.9016V169.92H29.9816L29.4916 172.47C29.665 172.283 29.8783 172.14 30.1316 172.04C30.385 171.933 30.6583 171.88 30.9516 171.88C31.385 171.88 31.775 171.977 32.1216 172.17C32.475 172.363 32.755 172.63 32.9616 172.97C33.1683 173.31 33.2716 173.7 33.2716 174.14C33.2716 174.607 33.1583 175.017 32.9316 175.37C32.7116 175.723 32.415 175.997 32.0416 176.19C31.6683 176.39 31.255 176.49 30.8016 176.49ZM39.2009 172.07C39.2009 172.657 39.0909 173.18 38.8709 173.64C38.6575 174.093 38.3609 174.45 37.9809 174.71C37.6009 174.97 37.1709 175.1 36.6909 175.1C36.2109 175.1 35.7809 174.97 35.4009 174.71C35.0275 174.45 34.7309 174.093 34.5109 173.64C34.2909 173.18 34.1809 172.657 34.1809 172.07C34.1809 171.483 34.2909 170.963 34.5109 170.51C34.7309 170.05 35.0275 169.69 35.4009 169.43C35.7809 169.163 36.2109 169.03 36.6909 169.03C37.1709 169.03 37.6009 169.163 37.9809 169.43C38.3609 169.69 38.6575 170.05 38.8709 170.51C39.0909 170.963 39.2009 171.483 39.2009 172.07ZM38.5109 172.07C38.5109 171.597 38.4342 171.18 38.2809 170.82C38.1275 170.46 37.9142 170.18 37.6409 169.98C37.3675 169.773 37.0509 169.67 36.6909 169.67C36.3309 169.67 36.0142 169.773 35.7409 169.98C35.4675 170.18 35.2509 170.46 35.0909 170.82C34.9375 171.18 34.8609 171.597 34.8609 172.07C34.8609 172.543 34.9375 172.96 35.0909 173.32C35.2509 173.68 35.4675 173.96 35.7409 174.16C36.0142 174.36 36.3309 174.46 36.6909 174.46C37.0509 174.46 37.3675 174.36 37.6409 174.16C37.9142 173.953 38.1275 173.673 38.2809 173.32C38.4342 172.96 38.5109 172.543 38.5109 172.07ZM45.3239 172.07C45.3239 172.657 45.2139 173.18 44.9939 173.64C44.7806 174.093 44.4839 174.45 44.1039 174.71C43.7239 174.97 43.2939 175.1 42.8139 175.1C42.3339 175.1 41.9039 174.97 41.5239 174.71C41.1506 174.45 40.8539 174.093 40.6339 173.64C40.4139 173.18 40.3039 172.657 40.3039 172.07C40.3039 171.483 40.4139 170.963 40.6339 170.51C40.8539 170.05 41.1506 169.69 41.5239 169.43C41.9039 169.163 42.3339 169.03 42.8139 169.03C43.2939 169.03 43.7239 169.163 44.1039 169.43C44.4839 169.69 44.7806 170.05 44.9939 170.51C45.2139 170.963 45.3239 171.483 45.3239 172.07ZM44.6339 172.07C44.6339 171.597 44.5572 171.18 44.4039 170.82C44.2506 170.46 44.0372 170.18 43.7639 169.98C43.4906 169.773 43.1739 169.67 42.8139 169.67C42.4539 169.67 42.1372 169.773 41.8639 169.98C41.5906 170.18 41.3739 170.46 41.2139 170.82C41.0606 171.18 40.9839 171.597 40.9839 172.07C40.9839 172.543 41.0606 172.96 41.2139 173.32C41.3739 173.68 41.5906 173.96 41.8639 174.16C42.1372 174.36 42.4539 174.46 42.8139 174.46C43.1739 174.46 43.4906 174.36 43.7639 174.16C44.0372 173.953 44.2506 173.673 44.4039 173.32C44.5572 172.96 44.6339 172.543 44.6339 172.07ZM51.447 172.07C51.447 172.657 51.337 173.18 51.117 173.64C50.9036 174.093 50.607 174.45 50.227 174.71C49.847 174.97 49.417 175.1 48.937 175.1C48.457 175.1 48.027 174.97 47.647 174.71C47.2736 174.45 46.977 174.093 46.757 173.64C46.537 173.18 46.427 172.657 46.427 172.07C46.427 171.483 46.537 170.963 46.757 170.51C46.977 170.05 47.2736 169.69 47.647 169.43C48.027 169.163 48.457 169.03 48.937 169.03C49.417 169.03 49.847 169.163 50.227 169.43C50.607 169.69 50.9036 170.05 51.117 170.51C51.337 170.963 51.447 171.483 51.447 172.07ZM50.757 172.07C50.757 171.597 50.6803 171.18 50.527 170.82C50.3736 170.46 50.1603 170.18 49.887 169.98C49.6136 169.773 49.297 169.67 48.937 169.67C48.577 169.67 48.2603 169.773 47.987 169.98C47.7136 170.18 47.497 170.46 47.337 170.82C47.1836 171.18 47.107 171.597 47.107 172.07C47.107 172.543 47.1836 172.96 47.337 173.32C47.497 173.68 47.7136 173.96 47.987 174.16C48.2603 174.36 48.577 174.46 48.937 174.46C49.297 174.46 49.6136 174.36 49.887 174.16C50.1603 173.953 50.3736 173.673 50.527 173.32C50.6803 172.96 50.757 172.543 50.757 172.07Z" fill="#A3A3A3"/>
<path d="M33.1955 116.66C33.1955 117.107 33.0821 117.517 32.8555 117.89C32.6355 118.257 32.3355 118.55 31.9555 118.77C31.5755 118.99 31.1488 119.1 30.6755 119.1C30.1821 119.1 29.7421 118.983 29.3555 118.75C28.9755 118.51 28.6755 118.167 28.4555 117.72C28.2355 117.273 28.1255 116.743 28.1255 116.13C28.1255 115.163 28.2355 114.367 28.4555 113.74C28.6755 113.107 28.9821 112.633 29.3755 112.32C29.7688 112.007 30.2255 111.85 30.7455 111.85C31.2188 111.85 31.6421 111.97 32.0155 112.21C32.3888 112.443 32.6721 112.763 32.8655 113.17L32.4255 113.57C32.2855 113.23 32.0621 112.96 31.7555 112.76C31.4555 112.553 31.1188 112.45 30.7455 112.45C30.3521 112.45 30.0088 112.573 29.7155 112.82C29.4221 113.067 29.1921 113.42 29.0255 113.88C28.8655 114.34 28.7855 114.897 28.7855 115.55C28.8855 115.29 29.0321 115.063 29.2255 114.87C29.4188 114.677 29.6455 114.527 29.9055 114.42C30.1721 114.313 30.4555 114.26 30.7555 114.26C31.2088 114.26 31.6188 114.367 31.9855 114.58C32.3588 114.793 32.6521 115.083 32.8655 115.45C33.0855 115.81 33.1955 116.213 33.1955 116.66ZM30.6955 118.5C31.0288 118.5 31.3355 118.417 31.6155 118.25C31.8955 118.083 32.1188 117.86 32.2855 117.58C32.4588 117.3 32.5455 116.993 32.5455 116.66C32.5455 116.327 32.4588 116.02 32.2855 115.74C32.1188 115.46 31.8955 115.237 31.6155 115.07C31.3355 114.903 31.0288 114.82 30.6955 114.82C30.3555 114.82 30.0421 114.903 29.7555 115.07C29.4755 115.237 29.2521 115.46 29.0855 115.74C28.9188 116.013 28.8355 116.32 28.8355 116.66C28.8355 116.993 28.9188 117.3 29.0855 117.58C29.2588 117.86 29.4855 118.083 29.7655 118.25C30.0455 118.417 30.3555 118.5 30.6955 118.5ZM39.2009 116.07C39.2009 116.657 39.0909 117.18 38.8709 117.64C38.6575 118.093 38.3609 118.45 37.9809 118.71C37.6009 118.97 37.1709 119.1 36.6909 119.1C36.2109 119.1 35.7809 118.97 35.4009 118.71C35.0275 118.45 34.7309 118.093 34.5109 117.64C34.2909 117.18 34.1809 116.657 34.1809 116.07C34.1809 115.483 34.2909 114.963 34.5109 114.51C34.7309 114.05 35.0275 113.69 35.4009 113.43C35.7809 113.163 36.2109 113.03 36.6909 113.03C37.1709 113.03 37.6009 113.163 37.9809 113.43C38.3609 113.69 38.6575 114.05 38.8709 114.51C39.0909 114.963 39.2009 115.483 39.2009 116.07ZM38.5109 116.07C38.5109 115.597 38.4342 115.18 38.2809 114.82C38.1275 114.46 37.9142 114.18 37.6409 113.98C37.3675 113.773 37.0509 113.67 36.6909 113.67C36.3309 113.67 36.0142 113.773 35.7409 113.98C35.4675 114.18 35.2509 114.46 35.0909 114.82C34.9375 115.18 34.8609 115.597 34.8609 116.07C34.8609 116.543 34.9375 116.96 35.0909 117.32C35.2509 117.68 35.4675 117.96 35.7409 118.16C36.0142 118.36 36.3309 118.46 36.6909 118.46C37.0509 118.46 37.3675 118.36 37.6409 118.16C37.9142 117.953 38.1275 117.673 38.2809 117.32C38.4342 116.96 38.5109 116.543 38.5109 116.07ZM45.3239 116.07C45.3239 116.657 45.2139 117.18 44.9939 117.64C44.7806 118.093 44.4839 118.45 44.1039 118.71C43.7239 118.97 43.2939 119.1 42.8139 119.1C42.3339 119.1 41.9039 118.97 41.5239 118.71C41.1506 118.45 40.8539 118.093 40.6339 117.64C40.4139 117.18 40.3039 116.657 40.3039 116.07C40.3039 115.483 40.4139 114.963 40.6339 114.51C40.8539 114.05 41.1506 113.69 41.5239 113.43C41.9039 113.163 42.3339 113.03 42.8139 113.03C43.2939 113.03 43.7239 113.163 44.1039 113.43C44.4839 113.69 44.7806 114.05 44.9939 114.51C45.2139 114.963 45.3239 115.483 45.3239 116.07ZM44.6339 116.07C44.6339 115.597 44.5572 115.18 44.4039 114.82C44.2506 114.46 44.0372 114.18 43.7639 113.98C43.4906 113.773 43.1739 113.67 42.8139 113.67C42.4539 113.67 42.1372 113.773 41.8639 113.98C41.5906 114.18 41.3739 114.46 41.2139 114.82C41.0606 115.18 40.9839 115.597 40.9839 116.07C40.9839 116.543 41.0606 116.96 41.2139 117.32C41.3739 117.68 41.5906 117.96 41.8639 118.16C42.1372 118.36 42.4539 118.46 42.8139 118.46C43.1739 118.46 43.4906 118.36 43.7639 118.16C44.0372 117.953 44.2506 117.673 44.4039 117.32C44.5572 116.96 44.6339 116.543 44.6339 116.07ZM51.447 116.07C51.447 116.657 51.337 117.18 51.117 117.64C50.9036 118.093 50.607 118.45 50.227 118.71C49.847 118.97 49.417 119.1 48.937 119.1C48.457 119.1 48.027 118.97 47.647 118.71C47.2736 118.45 46.977 118.093 46.757 117.64C46.537 117.18 46.427 116.657 46.427 116.07C46.427 115.483 46.537 114.963 46.757 114.51C46.977 114.05 47.2736 113.69 47.647 113.43C48.027 113.163 48.457 113.03 48.937 113.03C49.417 113.03 49.847 113.163 50.227 113.43C50.607 113.69 50.9036 114.05 51.117 114.51C51.337 114.963 51.447 115.483 51.447 116.07ZM50.757 116.07C50.757 115.597 50.6803 115.18 50.527 114.82C50.3736 114.46 50.1603 114.18 49.887 113.98C49.6136 113.773 49.297 113.67 48.937 113.67C48.577 113.67 48.2603 113.773 47.987 113.98C47.7136 114.18 47.497 114.46 47.337 114.82C47.1836 115.18 47.107 115.597 47.107 116.07C47.107 116.543 47.1836 116.96 47.337 117.32C47.497 117.68 47.7136 117.96 47.987 118.16C48.2603 118.36 48.577 118.46 48.937 118.46C49.297 118.46 49.6136 118.36 49.887 118.16C50.1603 117.953 50.3736 117.673 50.527 117.32C50.6803 116.96 50.757 116.543 50.757 116.07Z" fill="#A3A3A3"/>
<path d="M32.4884 57.8H28.6584V57.17H33.5684L29.9784 64.27H29.1984L32.4884 57.8ZM39.2009 60.07C39.2009 60.6567 39.0909 61.18 38.8709 61.64C38.6575 62.0933 38.3609 62.45 37.9809 62.71C37.6009 62.97 37.1709 63.1 36.6909 63.1C36.2109 63.1 35.7809 62.97 35.4009 62.71C35.0275 62.45 34.7309 62.0933 34.5109 61.64C34.2909 61.18 34.1809 60.6567 34.1809 60.07C34.1809 59.4833 34.2909 58.9633 34.5109 58.51C34.7309 58.05 35.0275 57.69 35.4009 57.43C35.7809 57.1633 36.2109 57.03 36.6909 57.03C37.1709 57.03 37.6009 57.1633 37.9809 57.43C38.3609 57.69 38.6575 58.05 38.8709 58.51C39.0909 58.9633 39.2009 59.4833 39.2009 60.07ZM38.5109 60.07C38.5109 59.5967 38.4342 59.18 38.2809 58.82C38.1275 58.46 37.9142 58.18 37.6409 57.98C37.3675 57.7733 37.0509 57.67 36.6909 57.67C36.3309 57.67 36.0142 57.7733 35.7409 57.98C35.4675 58.18 35.2509 58.46 35.0909 58.82C34.9375 59.18 34.8609 59.5967 34.8609 60.07C34.8609 60.5433 34.9375 60.96 35.0909 61.32C35.2509 61.68 35.4675 61.96 35.7409 62.16C36.0142 62.36 36.3309 62.46 36.6909 62.46C37.0509 62.46 37.3675 62.36 37.6409 62.16C37.9142 61.9533 38.1275 61.6733 38.2809 61.32C38.4342 60.96 38.5109 60.5433 38.5109 60.07ZM45.3239 60.07C45.3239 60.6567 45.2139 61.18 44.9939 61.64C44.7806 62.0933 44.4839 62.45 44.1039 62.71C43.7239 62.97 43.2939 63.1 42.8139 63.1C42.3339 63.1 41.9039 62.97 41.5239 62.71C41.1506 62.45 40.8539 62.0933 40.6339 61.64C40.4139 61.18 40.3039 60.6567 40.3039 60.07C40.3039 59.4833 40.4139 58.9633 40.6339 58.51C40.8539 58.05 41.1506 57.69 41.5239 57.43C41.9039 57.1633 42.3339 57.03 42.8139 57.03C43.2939 57.03 43.7239 57.1633 44.1039 57.43C44.4839 57.69 44.7806 58.05 44.9939 58.51C45.2139 58.9633 45.3239 59.4833 45.3239 60.07ZM44.6339 60.07C44.6339 59.5967 44.5572 59.18 44.4039 58.82C44.2506 58.46 44.0372 58.18 43.7639 57.98C43.4906 57.7733 43.1739 57.67 42.8139 57.67C42.4539 57.67 42.1372 57.7733 41.8639 57.98C41.5906 58.18 41.3739 58.46 41.2139 58.82C41.0606 59.18 40.9839 59.5967 40.9839 60.07C40.9839 60.5433 41.0606 60.96 41.2139 61.32C41.3739 61.68 41.5906 61.96 41.8639 62.16C42.1372 62.36 42.4539 62.46 42.8139 62.46C43.1739 62.46 43.4906 62.36 43.7639 62.16C44.0372 61.9533 44.2506 61.6733 44.4039 61.32C44.5572 60.96 44.6339 60.5433 44.6339 60.07ZM51.447 60.07C51.447 60.6567 51.337 61.18 51.117 61.64C50.9036 62.0933 50.607 62.45 50.227 62.71C49.847 62.97 49.417 63.1 48.937 63.1C48.457 63.1 48.027 62.97 47.647 62.71C47.2736 62.45 46.977 62.0933 46.757 61.64C46.537 61.18 46.427 60.6567 46.427 60.07C46.427 59.4833 46.537 58.9633 46.757 58.51C46.977 58.05 47.2736 57.69 47.647 57.43C48.027 57.1633 48.457 57.03 48.937 57.03C49.417 57.03 49.847 57.1633 50.227 57.43C50.607 57.69 50.9036 58.05 51.117 58.51C51.337 58.9633 51.447 59.4833 51.447 60.07ZM50.757 60.07C50.757 59.5967 50.6803 59.18 50.527 58.82C50.3736 58.46 50.1603 58.18 49.887 57.98C49.6136 57.7733 49.297 57.67 48.937 57.67C48.577 57.67 48.2603 57.7733 47.987 57.98C47.7136 58.18 47.497 58.46 47.337 58.82C47.1836 59.18 47.107 59.5967 47.107 60.07C47.107 60.5433 47.1836 60.96 47.337 61.32C47.497 61.68 47.7136 61.96 47.987 62.16C48.2603 62.36 48.577 62.46 48.937 62.46C49.297 62.46 49.6136 62.36 49.887 62.16C50.1603 61.9533 50.3736 61.6733 50.527 61.32C50.6803 60.96 50.757 60.5433 50.757 60.07Z" fill="#A3A3A3"/>
<path d="M61 254.5C61 254.5 132.2 297 179 297C225.8 297 249.2 71.768 296 71.768C342.8 71.768 365.2 153.326 412 179.5C458.8 205.674 530 202.64 530 202.64" stroke="url(#paint0_linear_37_206)" stroke-width="4"/>
<path d="M62 260C60.9393 260 59.922 259.579 59.1719 258.829C58.4218 258.079 58.0003 257.062 58 256.001C57.9997 254.94 58.4208 253.923 59.1705 253.173C59.9203 252.422 60.9373 252.001 61.998 252C63.0587 251.999 64.0762 252.42 64.8267 253.17C65.5772 253.919 65.9992 254.936 66 255.997C66.0008 257.058 65.5803 258.075 64.8309 258.826C64.0815 259.577 63.0647 259.999 62.004 260H62Z" fill="#8760D2"/>
<path d="M179 301C177.939 301 176.922 300.579 176.172 299.829C175.422 299.079 175 298.062 175 297.001C175 295.94 175.421 294.923 176.171 294.173C176.92 293.422 177.937 293.001 178.998 293C180.059 292.999 181.076 293.42 181.827 294.17C182.577 294.919 182.999 295.936 183 296.997C183.001 298.058 182.58 299.075 181.831 299.826C181.082 300.577 180.065 300.999 179.004 301H179Z" fill="#8760D2"/>
<path d="M296 76C294.939 76 293.922 75.5787 293.172 74.8288C292.422 74.0789 292 73.0617 292 72.001C292 70.9403 292.421 69.9229 293.171 69.1726C293.92 68.4223 294.937 68.0005 295.998 68C297.059 67.9995 298.076 68.4203 298.827 69.1698C299.577 69.9194 299.999 70.9363 300 71.997C300.001 73.0577 299.58 74.0753 298.831 74.826C298.082 75.5766 297.065 75.9989 296.004 76L296 76Z" fill="#E3887D"/>
<path d="M413 183C411.939 183 410.922 182.579 410.172 181.829C409.422 181.079 409 180.062 409 179.001C409 177.94 409.421 176.923 410.171 176.173C410.92 175.422 411.937 175.001 412.998 175C414.059 174.999 415.076 175.42 415.827 176.17C416.577 176.919 416.999 177.936 417 178.997C417.001 180.058 416.58 181.075 415.831 181.826C415.082 182.577 414.065 182.999 413.004 183L413 183Z" fill="#8760D2"/>
<path d="M530 207C528.939 207 527.922 206.579 527.172 205.829C526.422 205.079 526 204.062 526 203.001C526 201.94 526.421 200.923 527.171 200.173C527.92 199.422 528.937 199.001 529.998 199C531.059 198.999 532.076 199.42 532.827 200.17C533.577 200.919 533.999 201.936 534 202.997C534.001 204.058 533.58 205.075 532.831 205.826C532.082 206.577 531.065 206.999 530.004 207H530Z" fill="#8760D2"/>
<defs>
<filter id="filter0_d_37_206" x="0.6" y="0.6" width="586.8" height="390.8" filterUnits="userSpaceOnUse" color-interpolation-filters="sRGB">
<feFlood flood-opacity="0" result="BackgroundImageFix"/>
<feColorMatrix in="SourceAlpha" type="matrix" values="0 0 0 0 0 0 0 0 0 0 0 0 0 0 0 0 0 0 127 0" result="hardAlpha"/>
<feMorphology radius="2" operator="dilate" in="SourceAlpha" result="effect1_dropShadow_37_206"/>
<feOffset dx="4" dy="4"/>
<feGaussianBlur stdDeviation="5.2"/>
<feComposite in2="hardAlpha" operator="out"/>
<feColorMatrix type="matrix" values="0 0 0 0 0 0 0 0 0 0 0 0 0 0 0 0 0 0 0.25 0"/>
<feBlend mode="normal" in2="BackgroundImageFix" result="effect1_dropShadow_37_206"/>
<feBlend mode="normal" in="SourceGraphic" in2="effect1_dropShadow_37_206" result="shape"/>
</filter>
<linearGradient id="paint0_linear_37_206" x1="296" y1="51" x2="296" y2="197.5" gradientUnits="userSpaceOnUse">
<stop stop-color="#E3887D"/>
<stop offset="1" stop-color="#8760D2"/>
</linearGradient>
</defs>
</svg>
